<?xml version="1.0" encoding="UTF-8"?>
<svg id="Layer_1" xmlns="http://www.w3.org/2000/svg" version="1.1" viewBox="0 0 273.36 197.94">
  <!-- Generator: Adobe Illustrator 30.5.1, SVG Export Plug-In . SVG Version: 2.1.4 Build 3)  -->
  <defs>
    <style>
      .st0 {
        fill: #b68a2d;
      }

      .st1 {
        fill: #fff;
      }
    </style>
  </defs>
  <g>
    <path class="st0" d="M160.21,35.71c-4.59.22-7.95,2.69-9.86,6.95-1.46,3.25-1.23,6.72-2.13,10.08,0,.34,0,.56.45.67,1.23.11,2.35.34,3.59.56.56,0,.9,0,1.01-.78.34-1.57.45-3.14.78-4.71.34-2.02.45-4.03,2.02-5.6,1.79-1.9,4.03-2.58,6.39-2.58h27.45c-.22.67-.56,1.01-.9,1.46-2.35,2.58-4.59,5.15-6.95,7.73-4.15,4.59-8.29,9.19-12.44,13.67-2.35,2.69-4.82,5.38-7.17,7.95-3.7,4.15-7.51,8.18-11.2,12.32-1.01,1.23-2.24,2.35-3.25,3.59-1.12,1.34-2.35,2.58-3.7,4.03v-.9c-.11-10.53.22-21.17-.22-31.71-.22-6.39,0-12.66,0-19.05,0-1.23.56-2.8-.22-3.59-.67-.56-2.24-.11-3.47-.22-1.01,0-1.34.22-1.34,1.23,0,4.03,0,8.07.22,12.1.22,5.15,0,10.42,0,15.57,0,2.58-.56,4.48-2.58,5.94-.45.34-.67,1.01-1.46.9.11-1.57-.22-3.14-.22-4.59-.22-9.97.22-19.94-.22-29.91,0-.9-.22-1.23-1.12-1.23h-21.85c-1.01,0-1.12.34-1.12,1.23,0,2.58.22,5.04.22,7.62v25.66c0,.67,0,1.34.45,1.79,2.8,3.25,6.27,5.27,10.31,6.5,2.46.78,4.93.56,7.39.56.78,0,1.12.11,1.12,1.01,0,5.49.45,10.98.22,16.47,0,1.79-.22,3.59.34,5.49-.22-.22-.45-.22-.56-.34-3.02-3.92-6.16-7.73-9.19-11.65-3.25-4.15-6.39-8.29-9.75-12.32-.22-.22-.22-.56-.67-.45s-.22.45-.22.78v5.83c0,.78.34,1.34.78,2.02,1.68,2.02,3.25,4.03,4.82,5.94,2.8,3.59,5.71,7.17,8.51,10.64,2.58,3.25,5.04,6.5,7.73,9.63,1.01,1.23,1.79,2.46,3.14,3.7v-37.42c0-.45-.34-1.01.34-1.34,1.23-.67,2.35-1.34,3.7-2.02.11,9.52-.22,18.93.45,28.34.9-.56,1.34-1.34,1.9-2.02,3.14-3.47,6.27-7.06,9.41-10.53,4.03-4.48,8.07-8.85,11.99-13.33,2.35-2.58,4.71-5.15,7.06-7.84,4.03-4.48,8.07-8.96,12.1-13.44,2.35-2.58,4.59-5.15,6.95-7.73,3.7-4.15,7.51-8.18,11.2-12.32.22-.22.67-.45.56-1.01h-.34c-13.44.11-26.89-.45-40.33.34l-.11.34ZM129.29,74.25c-3.92.45-7.51-.45-10.76-2.69-.67-.45-1.23-.9-1.9-1.46-.45-.34-.67-.67-.56-1.23v-1.9c.22-8.4-.34-16.92-.34-25.32,0-1.23.34-1.46,1.46-1.46h11.76c.9,0,1.12.22,1.12,1.12v10.76c0,3.14-.11,6.16,0,9.3.22,3.81.22,7.73.22,11.54,0,.78-.34,1.12-1.12,1.23l.11.11Z"/>
    <path class="st0" d="M73.94,31.68h56.47c.22,0,.56.11.78-.34.56-1.23.22-2.02-.9-2.91-1.01-.67-1.68-1.57-1.57-2.91.11-2.13,0-4.26,0-6.39,0-.78.22-1.01,1.01-1.01h13.56c.9,0,1.34.22,1.23,1.23,0,1.79-.11,3.59,0,5.27.11,1.79-.22,3.14-1.9,4.15-1.01.56-.56,1.9-.45,2.8,0,.67,1.01.34,1.46.34h7.95c2.02,0,2.13-.11,1.9-2.13,0-.78-.78-1.12-1.34-1.57-.67-.56-1.34-.9-1.34-1.9V6.7c0-.78.22-1.46.9-1.79.45-.22.78-.67,1.23-.9,1.01-.56.34-1.46.45-2.24,0-.78-.67-.56-1.01-.56-2.8-.34-5.6-.67-8.4-1.01-.67,0-1.68-.45-2.13,0-.67.45.22,1.34,0,2.13-.22,1.23.45,1.9,1.46,2.58.56.34,1.01.78,1.01,1.57v7.06c0,.67-.11.9-.9.9-4.59-.22-9.19.22-13.89.34-1.01,0-1.23-.34-1.23-1.23v-6.61c0-.9.34-1.46,1.01-1.9.78-.45,1.57-1.01,1.34-2.24-.11-.78.34-1.68-.22-2.35-.56-.78-1.34,0-2.13,0-2.13,0-4.26.34-6.39.56-3.59.34-7.28.9-10.87,1.23-3.02.34-6.05.56-9.07.78-.67,0-1.34.34-2.02.78-1.9,1.46-3.47,3.36-5.27,4.93-2.69,2.24-5.04,4.93-7.62,7.28-1.68,1.46-3.14,3.02-4.71,4.59-3.25,3.02-6.5,5.94-9.75,8.96-.56.45-.78,1.12-.56,1.9s.9.45,1.46.45l.45-.22ZM105.54,5.24c3.14-.22,6.27-.56,9.41-1.01,1.57-.22,3.14-.34,4.71-.34.9,0,2.69,1.68,2.69,2.58v19.83c0,1.12-1.9,3.02-3.02,3.02h-4.03c1.9-1.68,3.14-3.36,4.93-4.59.67-.45,1.12-3.59.67-4.26-.34-.56-.56,0-.78.11-2.35,1.9-4.26,4.03-6.39,6.16-.45.45-.78.9-1.34,1.68-.9-2.35-1.57-4.26-2.35-6.16-1.9-5.04-3.81-10.2-5.71-15.24-.56-1.34-.34-1.57,1.12-1.68l.11-.11ZM81.56,25.52c1.68-1.34,3.02-3.02,4.71-4.37,2.58-2.24,4.93-4.82,7.51-7.17,2.46-2.24,4.71-4.71,7.51-6.83,2.69,7.39,5.38,14.79,8.18,22.07h-31.71c1.34-1.34,2.58-2.58,3.92-3.7h-.11Z"/>
    <path class="st0" d="M105.42,35.6h-32.83c.22.56.45.9.56,1.12,1.46,1.9,2.91,3.81,4.37,5.71,5.04,6.61,9.97,13.11,15.01,19.72,4.48,5.94,8.96,11.88,13.33,17.81.22.34.22.9.78.78.56-.22.22-.78.22-1.12v-42.69c0-1.12-.34-1.34-1.46-1.34ZM101.95,67.2c-6.83-9.19-13.44-17.93-20.17-26.78.22-.45.56-.22.78-.22h18.26c.56,0,1.12-.11,1.12.78v26.22Z"/>
    <path class="st0" d="M154.61,3.9c3.36.34,6.72.67,10.08,1.12,1.01.11,2.02,0,3.14.34.67.22.67.34.45.9-2.46,6.72-4.93,13.33-7.39,20.05-.56,1.46-.45,1.46-1.57.34l-6.16-6.16c-.22-.22-.56-.78-.9-.11-.45.78,0,3.59.78,4.26,1.46,1.46,2.91,2.91,4.48,4.37v.34h-2.02c-1.01-.11-1.46,0-1.46,1.34,0,1.12.22,1.34,1.34,1.34h43.02c.67,0,1.46,0,1.68-.67.22-.78,0-1.34-.67-2.02-2.58-2.24-5.04-4.59-7.51-6.95-2.91-2.91-6.05-5.6-8.96-8.51-3.25-3.02-6.5-6.05-9.75-9.19-1.23-1.23-2.58-1.68-4.15-1.79-1.9,0-3.81-.34-5.71-.56-2.8-.34-5.6-.67-8.4-1.01-.56,0-1.01,0-.9.78.22.67-.67,1.68.67,1.9l-.11-.11ZM168.95,13.2c.67-1.79,1.23-3.59,1.9-5.38.11-.34.34-.9.78-.34.22.22.56.34.78.56,2.35,2.24,4.71,4.48,7.06,6.72,3.25,3.14,6.5,6.39,9.97,9.3,1.79,1.57,3.36,3.59,5.27,5.15h-30.36c-1.12,0-1.23-.22-.9-1.34,1.9-4.93,3.7-9.97,5.49-14.9v.22Z"/>
  </g>
  <g>
    <path class="st1" d="M30.92,155.25c.67-1.57,1.34-3.02,2.02-4.59.34-.78.9-1.23,1.68-1.12,2.35.11,3.81-1.34,5.15-2.91,1.57-1.9,2.58-4.15,3.92-6.27.45,1.46.67,2.8,1.12,4.03,1.12,3.25,3.36,4.93,6.61,5.15,4.26.22,7.39-2.02,10.42-4.26,3.47-2.58,6.72-5.27,10.08-7.95,1.12-.9,2.35-1.57,3.25-2.69.67-.78.45-1.34-.45-1.68-.78-.34-1.57.11-2.35,0-1.68-.22-3.25-.78-4.82-1.46-2.91-1.23-5.83-1.9-8.74,0-1.57,1.01-2.13,1.9-1.79,3.59,3.92-2.69,6.95.22,10.53,1.34-.45.45-.78.56-1.01.78-.22.22-.45.45-.78.78-3.92,3.81-8.51,5.94-14,5.71-1.57,0-2.8-.56-3.92-1.68-1.12-1.23-1.23-2.69-1.34-4.15-.11-2.91.22-5.71.45-8.63.34-3.7,1.01-7.39,1.79-10.98.22-1.34.67-2.69.56-4.48-1.46,1.9-2.69,3.47-3.81,5.04-.34.56-.56,1.23-.67,1.79-.56,3.14-.56,6.39-.78,9.63,0,1.57-.11,3.25-.56,4.82-1.12,4.15-3.59,7.28-7.95,8.51-1.01.34-1.9.22-2.13-1.12-.22-1.01-.9-1.9-1.46-2.8-1.12-1.57-3.02-1.79-4.15-.34-1.57,2.24-2.8,4.71-3.7,7.17-.45,1.23,0,2.02,1.12,2.58,1.34.78,2.8,1.12,4.37,1.23.9,0,1.23.34.78,1.23-.9,1.57-2.02,2.91-3.36,4.03-2.8,2.24-5.83,4.26-8.74,6.5-.45.34-1.34.45-1.01,1.12.22.67,1.12.22,1.68.22.22,0,.34-.11.56-.22,1.68-.34,3.25-1.01,4.71-1.68,3.02-1.23,5.6-3.25,6.95-6.27h-.22Z"/>
    <path class="st1" d="M138.25,152.79c1.57-1.23,3.14-2.24,5.15-2.58,2.69-.56,5.38-.56,8.07-.78,2.35-.22,4.59-1.01,6.5-2.58,1.01-.78,2.02-2.13,3.59-1.9s3.25.22,4.82.45c1.57.22,3.36,0,4.37-1.46,1.23-1.79,1.79-3.92,2.02-5.6,0-2.8-1.34-4.15-3.14-4.82-3.59-1.23-7.06-2.8-10.2-4.93-1.23-.78-1.9-.45-1.9,1.01,0,1.57-.67,2.8-1.46,4.03-1.46,2.24-1.9,4.59-1.12,7.17.45,1.46,0,2.24-1.68,2.58-1.23.22-2.46.22-3.81.22-3.25,0-6.16,1.01-8.85,2.69-3.36,2.13-5.6,5.27-8.18,8.07-2.69,2.91-5.6,5.38-8.85,7.73-3.14,2.35-6.61,4.26-10.08,6.16-.56.34-1.79.45-1.46,1.34.22.56,1.34.22,2.02,0,6.61-1.34,11.99-4.93,16.81-9.63,2.46-2.46,4.82-5.04,7.51-7.17h-.11ZM164.35,140.24c.22-.56.45-1.23.78-1.79q.9-2.13,2.91-1.01c1.01.56,2.24,1.34,1.9,2.46-.34.9-1.68,1.34-3.02,1.23-.67.22-1.46-.34-2.24-.22-.56,0-.45-.34-.34-.67ZM160.21,134.64c1.46,0,2.13.67,2.13,2.13,0,1.68-1.57,3.92-2.91,3.92-1.01,0-2.69-1.68-2.69-2.8,0-1.46,1.9-3.25,3.36-3.25h.11Z"/>
    <path class="st1" d="M209.17,118.17c-1.57-.45-3.25,0-4.82-.22-1.34-.11-2.13.56-2.8,1.57-.9,1.34-1.68,2.58-2.46,3.92-.34.45-.67,1.01-.34,1.57,4.26-1.46,5.27-1.57,6.61-.78-3.59,2.02-7.06,3.92-10.64,5.94-2.58,1.46-5.15,3.14-6.72,5.83-.56.9-.34,1.46.67,1.46,1.68,0,3.25-.34,4.93-.45,1.9,0,3.92-.78,5.94.22-.22.22-.34.45-.56.56-3.92,3.14-8.29,5.15-13.33,5.6-1.68.11-2.13.67-3.02-1.79-.34-1.23-1.12-2.13-2.13-2.91-1.23-1.01-2.35-1.01-3.02-.11-1.68,2.46-3.14,5.04-4.15,7.95-.34,1.12,0,1.79.78,2.24,1.34.78,2.8,1.23,4.37,1.34.45,0,.9-.11,1.12.45s0,1.01-.34,1.46c-.67.78-1.23,1.57-2.02,2.24-3.02,3.02-6.72,5.27-10.08,7.84-.45.34-1.01.56-1.01,1.23h2.13c2.91-.67,5.38-2.02,7.95-3.36,1.01-.56,1.79-1.34,2.46-2.24,1.57-2.13,2.24-4.59,3.36-6.83.45-.9,1.01-1.46,2.02-1.34,1.46,0,2.91-.34,4.15-.9,5.6-2.46,10.2-6.05,13.78-10.98.45-.67.9-1.34.45-2.02-.45-.78-1.23-1.12-2.24-1.12h-7.62c-.34,0-.67.22-1.01-.22,1.57-1.12,3.14-2.13,4.93-2.91,3.47-1.68,7.06-3.02,10.08-5.6,1.34-1.12,2.69-2.35,3.59-3.81,1.12-1.57.34-3.14-1.57-3.7l.56-.11Z"/>
    <path class="st1" d="M109.35,152.45c5.71-1.68,10.53-4.26,13.22-9.86.34-.67.78-1.34,1.12-2.02.34-.56.22-1.12-.34-1.46-.67-.45-.67.34-.9.56-1.01,1.12-2.02,2.35-3.25,3.25-2.13,1.57-4.48,2.35-6.95,3.14-3.14.9-6.27,1.57-9.52,1.9-2.24.22-4.37.45-6.61.56-4.26.22-8.63.9-12.88,0-1.57-.34-3.25-.78-4.37-2.13-.78-1.01-1.57-2.24-1.01-3.7.22-.45.34-1.23-.45-1.46-.78-.22-1.01.56-1.34,1.01v.22c-.34,1.9-1.12,3.81-.78,5.6v1.12c-.22,3.02,1.12,4.48,3.92,5.49,2.58.9,5.27.78,7.84,1.01,2.91.22,5.83-.22,8.74-.56,4.48-.56,8.96-1.34,13.33-2.58l.22-.11Z"/>
    <path class="st1" d="M11.99,134.98c-1.79,2.69-2.91,5.71-3.7,8.74-.45,2.02-1.34,3.92-.78,6.05,1.01,3.92,4.03,5.49,6.83,3.14,3.7-2.91,5.71-6.95,5.94-13.22.22-2.35-2.58-5.04-5.15-5.83-1.57-.45-2.35-.34-3.25,1.12h.11ZM16.47,145.84c0,1.68-1.57,3.14-3.47,3.14s-3.14-1.23-3.14-3.02c0-1.46,1.9-3.81,2.91-3.81,1.68,0,3.7,2.13,3.7,3.7h0Z"/>
    <path class="st1" d="M130.41,124.56c-2.13,5.94-2.8,11.99-3.14,18.26-.11,2.13-.45,4.26-.67,6.5-.22,2.13-.34,4.26-.56,6.5,1.01-.56,1.46-1.46,2.13-3.02,2.46-5.6,2.58-11.54,3.14-17.37.22-2.13.34-4.37.56-6.5.34-2.69.22-5.38.67-8.07,0-.45-.22-.78-.67-1.12-.45,1.68-.9,3.36-1.46,4.93v-.11Z"/>
    <path class="st1" d="M103.86,130.38c-1.57,2.24-2.02,2.35-4.26,1.12-.22-.11-.56-.22-.78-.34-.67-.45-1.12-.34-1.57.22-1.12,1.34-2.24,2.58-3.36,3.92-.34.34-.34.67,0,1.12,2.13,2.02,4.48,2.02,6.5,0,1.57-1.57,1.57-1.68,3.7-.56,1.01.45,1.79.34,2.24-.45.45-.67,1.12-1.23,1.68-1.9.56-.78,1.34-1.34,1.46-2.46,0-.11,0-.34-.11-.45-1.12-2.02-4.15-2.13-5.38-.34l-.11.11Z"/>
    <path class="st1" d="M9.63,132.51c1.34,0,1.9-.9,2.58-1.79,1.12-1.46,1.12-1.57,2.8-.67.78.34,1.68,1.01,2.35.22,1.12-1.23,2.35-2.24,3.14-3.81.34-.67.22-1.12-.34-1.46-3.02-1.79-3.02-2.24-5.38.67,0,0,0,.11-.11.22-.78,1.01-1.68,1.34-2.8.56-.34-.22-.78-.45-1.23-.67-.56-.34-1.12-.34-1.68.22-1.01,1.23-2.13,2.46-3.14,3.7-.34.45-.34.78,0,1.12,1.12.78,2.35,1.34,3.7,1.68h.11Z"/>
    <path class="st1" d="M195.72,155.93c1.01-.9,2.13-1.57,3.14-2.24.56-.34.78-.9,1.01-1.46,0-.22-.11-.56-.34-.67-1.12-1.23-2.24-2.35-3.47-3.47-.45-.45-1.12-.22-1.68.22-1.23,1.01-2.35,2.24-3.59,3.25-.56.45-.56.78,0,1.23,1.12,1.01,2.35,2.13,3.47,3.14.34.34.78.56,1.34,0h.11Z"/>
    <g>
      <path class="st1" d="M218.58,134.42c.45,0,.9-.22,1.23-.56s.56-.78.56-1.23-.22-.9-.56-1.23-.78-.56-1.23-.56-.9.22-1.23.56-.56.78-.56,1.23.22.9.56,1.23.78.56,1.23.56Z"/>
      <path class="st1" d="M214.55,134.42c.45,0,.9-.22,1.23-.56s.56-.78.56-1.23-.22-.9-.56-1.23-.78-.56-1.23-.56-.9.22-1.23.56-.56.78-.56,1.23.22.9.56,1.23.78.56,1.23.56Z"/>
      <path class="st1" d="M231.24,135.54c-.11,0-.34.22-.45.45-.11.22-.34.45-.45.9-.11.34-.34.78-.45,1.34.78.45,1.57.9,2.35,1.46.78.56,1.46,1.12,2.02,1.68s1.12,1.12,1.46,1.57.56.9.56,1.23c0,.45-.11.67-.45.9-.34.11-.67.22-1.01.22h-13.44c-.34,0-.56,0-.67-.22,0-.11-.11-.45-.11-.78v-7.28h-4.15c-.56,0-1.23,0-1.79.22s-1.12.45-1.68.9c-.45.34-.9.9-1.23,1.57-.34.67-.45,1.34-.45,2.24s.11,1.68.45,2.24c.34.56.78,1.01,1.23,1.34.45.34,1.01.56,1.57.67s1.01.22,1.46.22h.9c.34,0,.56,0,.9-.11.11.45.34.78.56,1.01s.56.45.78.56c.34.11.67.22,1.01.34h15.01c.9,0,1.68-.11,2.24-.34s1.01-.56,1.34-.9.56-.78.67-1.23c0-.45.11-.9.11-1.23s0-.9-.22-1.46c-.11-.56-.45-1.12-.78-1.68s-.9-1.23-1.57-1.79c-.67-.67-1.46-1.23-2.46-1.9h0l5.71-2.46v-3.25l-8.51,3.81s-.22.11-.34.22l-.11-.45ZM217.35,143.16c-.22,0-.45.11-.67.11h-.67c-.34,0-.67,0-.9-.22-.22-.11-.45-.22-.56-.45s-.22-.34-.22-.56v-.67c0-.56.11-.9.45-1.23.34-.34.78-.45,1.34-.45h1.23v3.47Z"/>
      <path class="st1" d="M259.92,132.06c.45,0,.9-.22,1.23-.56s.56-.78.56-1.23-.22-.9-.56-1.23-.78-.56-1.23-.56-.9.22-1.23.56-.56.78-.56,1.23.22.9.56,1.23.78.56,1.23.56Z"/>
      <path class="st1" d="M260.14,133.97c0,.45.22.9.56,1.23s.78.56,1.23.56.9-.22,1.23-.56.56-.78.56-1.23-.22-.9-.56-1.23-.78-.56-1.23-.56-.9.22-1.23.56-.56.78-.56,1.23Z"/>
      <path class="st1" d="M257.9,135.65c.45,0,.9-.22,1.23-.56s.56-.78.56-1.23-.22-.9-.56-1.23-.78-.56-1.23-.56-.9.22-1.23.56-.56.78-.56,1.23.22.9.56,1.23.78.56,1.23.56Z"/>
      <path class="st1" d="M264.51,138.11v6.95h-1.46c-1.01,0-1.46-.56-1.46-1.68v-4.15h-3.14v4.71c0,.45-.11.78-.45.9-.34.11-.78.22-1.23.22s-1.01-.11-1.34-.45-.45-.67-.45-1.23v-4.15h-3.14v5.38c0,.11-.22.22-.34.34-.11,0-.34.11-.56.11h-2.58c-.22,0-.45-.11-.56-.34s-.34-.34-.45-.56c0-.22-.11-.45-.11-.78v-4.15h-3.14v8.85c0,.45-.22.78-.34,1.12-.22.34-.45.45-.9.67-.34.11-.9.22-1.57.22v3.02c1.01,0,1.9-.11,2.69-.34s1.34-.56,1.9-1.01c.45-.45.9-1.01,1.12-1.79.22-.78.34-1.68.45-2.8.22.34.56.56,1.01.67h1.68c1.12,0,2.02,0,2.69-.22.67-.11,1.23-.45,1.68-1.01.22.34.67.56,1.23.9s1.23.45,2.13.45.56,0,.78,0c.34,0,.56,0,.9-.11.34,0,.56-.22.9-.34.22-.22.56-.45.78-.67.34.45.67.78,1.12,1.01s1.12.34,1.9.34h3.7v-9.75h-3.14l-.34-.34Z"/>
    </g>
  </g>
  <g>
    <path class="st1" d="M10.76,189.2h3.25v4.37c-.34.22-1.23.34-2.35.34-3.92,0-6.61-2.46-6.61-6.83s3.02-6.72,6.95-6.72,3.81.45,4.93.9l1.01-3.7c-1.01-.45-3.14-1.01-5.83-1.01-6.95,0-11.99,3.92-12.1,10.76,0,3.02,1.01,5.71,3.02,7.51,1.9,1.79,4.71,2.8,8.63,2.8s5.6-.67,7.06-1.12v-10.87h-7.84v3.7l-.11-.11Z"/>
    <path class="st1" d="M31.59,176.43c-6.27,0-10.31,4.59-10.31,10.87s3.7,10.53,9.97,10.53,10.42-4.15,10.42-10.87-3.59-10.42-9.97-10.42l-.11-.11ZM31.59,194.02c-3.25,0-5.15-2.8-5.15-6.95s1.9-7.06,5.15-7.06,5.15,3.14,5.15,6.95-1.79,7.06-5.04,7.06h-.11Z"/>
    <polygon class="st1" points="49.63 176.77 44.81 176.77 44.81 197.38 58.03 197.38 58.03 193.46 49.63 193.46 49.63 176.77"/>
    <path class="st1" d="M75.85,178.78c-2.02-1.46-4.59-2.24-8.63-2.24s-4.71.11-6.5.45v20.28c1.23.11,2.91.34,5.38.34,4.15,0,7.51-.9,9.75-2.69,2.02-1.68,3.47-4.37,3.47-8.4s-1.34-6.16-3.59-7.84l.11.11ZM67.22,194.02h-1.68v-13.56c.45,0,1.12-.22,2.13-.22,4.15,0,6.72,2.24,6.61,6.61,0,4.93-2.8,7.28-7.17,7.28l.11-.11Z"/>
    <polygon class="st1" points="101.62 184.72 93.77 184.72 93.77 176.77 88.96 176.77 88.96 197.38 93.77 197.38 93.77 188.75 101.62 188.75 101.62 197.38 106.32 197.38 106.32 176.77 101.62 176.77 101.62 184.72"/>
    <polygon class="st1" points="115.28 188.64 123.13 188.64 123.13 184.83 115.28 184.83 115.28 180.57 123.57 180.57 123.57 176.77 110.58 176.77 110.58 197.38 124.02 197.38 124.02 193.57 115.28 193.57 115.28 188.64"/>
    <polygon class="st1" points="132.09 176.77 127.27 176.77 127.27 197.38 140.38 197.38 140.38 193.46 132.09 193.46 132.09 176.77"/>
    <path class="st1" d="M161.67,176.77l-1.68,8.51c-.45,2.46-.9,4.93-1.23,7.17h0c-.34-2.35-.67-4.48-1.12-6.95l-1.68-8.74h-5.04l-1.79,8.51c-.56,2.58-1.01,5.04-1.34,7.28h0c-.34-2.13-.78-4.71-1.23-7.17l-1.57-8.51h-5.15l5.04,20.73h5.27l2.02-8.85c.45-2.13.9-4.03,1.23-6.39h0c.22,2.35.56,4.26,1.01,6.39l1.79,8.85h5.15l5.49-20.73h-4.82l-.34-.11Z"/>
    <path class="st1" d="M172.31,176.77l-6.5,20.73h4.93l1.46-5.27h6.05l1.68,5.27h5.15l-6.5-20.73h-6.27,0ZM172.98,188.64l1.23-4.37c.34-1.23.67-2.8,1.01-4.03h0c.34,1.23.67,2.8,1.12,4.03l1.34,4.37h-4.71Z"/>
    <polygon class="st1" points="200.54 184.72 192.7 184.72 192.7 176.77 187.88 176.77 187.88 197.38 192.7 197.38 192.7 188.75 200.54 188.75 200.54 197.38 205.36 197.38 205.36 176.77 200.54 176.77 200.54 184.72"/>
    <g>
      <path class="st1" d="M221.83,192.34h3.25c0,1.01-.45,1.79-1.01,2.35s-1.34.78-2.46.78-1.34-.11-1.79-.45-.9-.67-1.23-1.12-.56-1.01-.67-1.57-.22-1.12-.22-1.79,0-1.23.22-1.79.34-1.12.67-1.57.67-.78,1.23-1.12c.45-.22,1.12-.45,1.79-.45s1.46.22,1.9.56c.56.45.9,1.01,1.12,1.79h3.02c0-.78-.34-1.57-.67-2.13-.34-.67-.78-1.12-1.34-1.57s-1.23-.78-1.9-1.01c-.67-.22-1.46-.34-2.13-.34-1.12,0-2.13.22-3.02.56s-1.57.9-2.24,1.57c-.56.67-1.12,1.46-1.34,2.46s-.45,1.9-.45,3.02.11,2.02.45,2.91.78,1.68,1.34,2.35,1.34,1.23,2.24,1.57c.9.34,1.9.56,3.02.56s1.34-.11,2.13-.45c.67-.34,1.34-.78,1.9-1.57l.34,1.68h2.02v-7.84h-6.05v2.35l-.11.22Z"/>
      <path class="st1" d="M245.13,187.86c-.34-.34-.78-.56-1.23-.67-.45-.11-1.01-.22-1.57-.22s-1.34.22-1.9.56-1.01.78-1.23,1.23c-.34-.67-.67-1.12-1.23-1.34s-1.12-.45-1.79-.45-1.34.11-1.79.45-1.01.67-1.34,1.23h0v-1.46h-2.69v10.42h2.91v-6.05c0-.56,0-.9.22-1.23.11-.34.34-.56.56-.67.22-.22.45-.34.67-.34h.56c.45,0,.78,0,1.01.22.22.11.45.34.56.67,0,.22.11.56.22.9v6.72h2.91v-6.83c0-.34.11-.56.34-.9s.34-.45.56-.56.56-.22,1.01-.22.67,0,1.01.22c.22.11.45.34.56.56s.22.45.22.78v6.95h2.91v-6.95c0-.67,0-1.23-.34-1.68-.22-.45-.45-.9-.78-1.12l-.34-.22Z"/>
      <path class="st1" d="M257.68,188.31c-.45-.45-.9-.78-1.34-1.01-.56-.22-1.01-.34-1.57-.34s-1.23.11-1.9.34-1.12.67-1.46,1.23h0v-5.27h-2.91v14.45h2.69v-1.34h0c.34.56.78,1.01,1.34,1.23.56.22,1.34.34,2.02.34s1.01,0,1.57-.34c.56-.22,1.01-.56,1.34-1.01.45-.45.78-1.01,1.01-1.68s.34-1.57.34-2.46-.11-1.79-.34-2.46c-.22-.67-.56-1.23-1.01-1.68h.22ZM256,193.79c0,.45-.22.78-.45,1.12s-.45.56-.78.78-.67.22-1.12.22-.78,0-1.12-.22-.56-.45-.78-.78-.34-.67-.45-1.12c0-.45-.11-.78-.11-1.23s0-.9.11-1.23c0-.45.22-.78.45-1.12s.45-.56.78-.78.67-.22,1.12-.22.78,0,1.12.22.56.45.78.78.34.67.45,1.12c0,.45.11.78.11,1.23s0,.9-.11,1.23Z"/>
      <polygon class="st1" points="270.23 183.26 270.23 188.87 264.4 188.87 264.4 183.26 261.15 183.26 261.15 197.72 264.4 197.72 264.4 191.55 270.23 191.55 270.23 197.72 273.36 197.72 273.36 183.26 270.23 183.26"/>
    </g>
  </g>
</svg>